<?xml version="1.0" encoding="iso-8859-1"?>
<!-- Generator: Adobe Illustrator 19.0.0, SVG Export Plug-In . SVG Version: 6.00 Build 0)  -->
<svg xmlns="http://www.w3.org/2000/svg" xmlns:xlink="http://www.w3.org/1999/xlink" version="1.1" id="Capa_1" x="0px" y="0px" viewBox="0 0 512 512" style="enable-background:new 0 0 512 512;" xml:space="preserve" width="512px" height="512px">
<g>
	<g>
		<path d="M83.1,241.25c-30.21,0-58.61-11.77-79.97-33.13c-1.07-1.07-2.12-2.16-3.13-3.26v177.53h37.44v84.56h30v-84.56h36.94    V241.25H83.1z" fill="#00b395"/>
	</g>
</g>
<g>
	<g>
		<path d="M24.34,69.39C9.3,84.43,0,105.21,0,128.15c0,42.31,31.62,77.24,72.53,82.43V45.72C53.81,48.09,37.03,56.7,24.34,69.39z" fill="#00b395"/>
	</g>
</g>
<g>
	<g>
		<rect x="102.53" y="45.05" width="49.93" height="166.2" fill="#00b395"/>
	</g>
</g>
<g>
	<g>
		<path d="M508.87,208.12c-21.36,21.36-49.76,33.13-79.97,33.13h-21.28v141.14h36.94v84.56h30v-84.56H512V204.86    C510.99,205.96,509.94,207.05,508.87,208.12z" fill="#00b395"/>
	</g>
</g>
<g>
	<g>
		<path d="M487.66,69.39c-12.69-12.69-29.47-21.3-48.19-23.67v164.86c40.91-5.19,72.53-40.12,72.53-82.43    C512,105.21,502.7,84.43,487.66,69.39z" fill="#00b395"/>
	</g>
</g>
<g>
	<g>
		<rect x="359.54" y="45.05" width="49.93" height="166.2" fill="#00b395"/>
	</g>
</g>
<g>
</g>
<g>
</g>
<g>
</g>
<g>
</g>
<g>
</g>
<g>
</g>
<g>
</g>
<g>
</g>
<g>
</g>
<g>
</g>
<g>
</g>
<g>
</g>
<g>
</g>
<g>
</g>
<g>
</g>
</svg>
