<?xml version="1.0" encoding="iso-8859-1"?>
<!-- Generator: Adobe Illustrator 19.0.0, SVG Export Plug-In . SVG Version: 6.00 Build 0)  -->
<svg xmlns="http://www.w3.org/2000/svg" xmlns:xlink="http://www.w3.org/1999/xlink" version="1.1" id="Layer_1" x="0px" y="0px" viewBox="0 0 512 512" style="enable-background:new 0 0 512 512;" xml:space="preserve" width="512px" height="512px">
<g>
	<g>
		<path d="M384.004,128h-10.656V0h-234.68v128h-10.664c-5.867,0-10.664,4.797-10.664,10.664V288c0,5.875,2.664,14.656,5.914,19.531    l30.836,46.25c3.25,4.891,5.914,13.688,5.914,19.563v21.313c0,5.875,4.797,10.688,10.664,10.688h21.336V512h128V405.344h21.344    c5.859,0,10.656-4.813,10.656-10.688v-21.313c0-5.875,2.656-14.672,5.906-19.563l30.844-46.25    c3.25-4.875,5.906-13.656,5.906-19.531V138.664C394.66,132.797,389.879,128,384.004,128z M341.348,21.336h10.656V128h-10.656    V21.336z M192.004,21.336h128V128h-128V21.336z M160.004,21.336h10.664V128h-10.664V21.336z M298.66,490.656h-85.32v-85.313h85.32    V490.656z M330.66,373.344V384H181.34v-10.672c0-3.328-0.438-6.984-1.211-10.672h151.75    C331.098,366.344,330.66,370,330.66,373.344z M373.348,287.969c-0.063,1.812-1.391,6.234-2.344,7.75l-30.406,45.625h-169.18    l-30.398-45.625c-0.969-1.516-2.305-5.938-2.352-7.719V149.336h234.68V287.969z" fill="#007bff"/>
	</g>
</g>
<g>
	<g>
		<path d="M234.668,64H213.34c-5.891,0-10.672,4.773-10.672,10.664s4.781,10.672,10.672,10.672h21.328    c5.891,0,10.672-4.781,10.672-10.672S240.559,64,234.668,64z" fill="#007bff"/>
	</g>
</g>
<g>
	<g>
		<path d="M298.66,64h-21.313c-5.898,0-10.68,4.773-10.68,10.664s4.781,10.672,10.68,10.672h21.313    c5.906,0,10.688-4.781,10.688-10.672S304.566,64,298.66,64z" fill="#007bff"/>
	</g>
</g>
<g>
	<g>
		<path d="M309.348,234.664h-106.68c-5.891,0-10.664,4.781-10.664,10.672S196.777,256,202.668,256h106.68    c5.875,0,10.656-4.773,10.656-10.664S315.223,234.664,309.348,234.664z" fill="#007bff"/>
	</g>
</g>
<g>
	<g>
		<path d="M309.348,277.344h-106.68c-5.891,0-10.664,4.766-10.664,10.656s4.773,10.656,10.664,10.656h106.68    c5.875,0,10.656-4.766,10.656-10.656S315.223,277.344,309.348,277.344z" fill="#007bff"/>
	</g>
</g>
<g>
</g>
<g>
</g>
<g>
</g>
<g>
</g>
<g>
</g>
<g>
</g>
<g>
</g>
<g>
</g>
<g>
</g>
<g>
</g>
<g>
</g>
<g>
</g>
<g>
</g>
<g>
</g>
<g>
</g>
</svg>
